<!DOCTYPE svg PUBLIC "-//W3C//DTD SVG 20010904//EN" "http://www.w3.org/TR/2001/REC-SVG-20010904/DTD/svg10.dtd">
<svg version="1.0" xmlns="http://www.w3.org/2000/svg" width="800px" height="800px" viewBox="0 0 8000 8000" preserveAspectRatio="xMidYMid meet">
<g id="layer101" fill="#ffffff" stroke="none">
 <path d="M3618 7003 c-10 -2 -18 -9 -18 -14 0 -5 -31 -9 -69 -9 -38 0 -71 -5 -73 -10 -2 -6 -40 -13 -86 -17 -45 -3 -82 -10 -82 -14 0 -5 -18 -9 -40 -9 -22 0 -40 -4 -40 -10 0 -5 -7 -10 -15 -10 -8 0 -15 -4 -15 -9 0 -4 -36 -12 -80 -15 -64 -6 -80 -11 -85 -25 -4 -14 -20 -20 -62 -25 -35 -4 -62 -13 -72 -25 -9 -10 -33 -21 -53 -25 -21 -4 -38 -11 -38 -16 0 -6 -11 -10 -25 -10 -14 0 -25 -4 -25 -9 0 -5 -20 -12 -44 -15 -31 -5 -47 -13 -51 -25 -4 -12 -19 -20 -46 -24 -23 -3 -48 -14 -58 -26 -10 -12 -23 -21 -30 -21 -6 0 -11 -4 -11 -10 0 -5 -16 -12 -35 -16 -19 -3 -35 -10 -35 -15 0 -5 -7 -9 -15 -9 -8 0 -15 -4 -15 -10 0 -5 -11 -12 -25 -16 -14 -3 -25 -10 -25 -15 0 -5 -9 -9 -20 -9 -11 0 -20 -7 -20 -15 0 -8 -5 -15 -11 -15 -7 0 -19 -8 -28 -19 -9 -10 -27 -22 -41 -26 -14 -4 -32 -16 -41 -26 -9 -11 -21 -19 -28 -19 -6 0 -11 -4 -11 -9 0 -5 -9 -12 -19 -16 -11 -3 -23 -14 -26 -24 -3 -10 -19 -21 -34 -24 -18 -4 -32 -15 -36 -27 -3 -11 -10 -20 -15 -20 -5 0 -20 -11 -34 -25 -14 -14 -28 -25 -32 -25 -3 0 -35 -28 -69 -62 -35 -35 -70 -69 -77 -75 -21 -20 -38 -36 -66 -66 -87 -91 -124 -127 -132 -127 -5 0 -12 -9 -15 -20 -3 -11 -12 -20 -19 -20 -7 0 -18 -11 -25 -23 -7 -13 -22 -30 -33 -38 -24 -16 -93 -86 -158 -158 -25 -27 -51 -50 -57 -50 -7 -1 -13 -5 -13 -10 0 -5 -20 -29 -45 -54 -25 -26 -45 -50 -45 -56 0 -5 -5 -11 -12 -13 -7 -3 -13 -38 -16 -96 -4 -78 -1 -98 16 -134 31 -62 51 -84 105 -113 39 -20 62 -25 124 -25 66 0 81 3 109 25 18 14 36 25 41 25 13 0 563 555 563 568 0 7 6 12 13 12 7 0 53 41 101 90 49 50 94 90 101 90 6 0 23 12 37 28 14 15 38 36 54 47 15 11 36 28 46 38 10 9 22 17 27 17 5 0 14 7 21 15 7 8 37 27 69 42 31 16 62 36 69 46 7 9 20 17 28 17 8 0 14 5 14 10 0 6 7 10 17 10 9 0 30 11 47 24 17 13 42 27 56 31 14 4 37 16 52 26 14 11 33 19 41 19 8 0 35 11 61 25 26 14 54 25 62 25 9 0 28 8 42 19 15 10 51 24 80 30 30 6 63 18 75 26 12 8 34 15 49 15 15 0 29 4 32 9 3 5 30 12 61 16 30 3 57 11 60 16 4 5 25 9 49 9 23 0 47 5 52 10 6 6 54 13 107 17 53 3 97 10 97 15 0 4 117 8 260 8 167 0 260 -4 260 -10 0 -5 26 -10 58 -10 31 -1 77 -5 102 -11 25 -5 63 -12 85 -16 22 -3 45 -9 50 -13 6 -4 30 -11 55 -15 56 -8 129 -29 172 -48 18 -9 56 -21 85 -27 28 -6 54 -18 57 -26 3 -8 14 -14 25 -14 11 0 41 -11 67 -25 26 -14 54 -25 62 -25 8 0 30 -11 48 -25 18 -14 39 -25 46 -25 7 0 30 -11 50 -25 20 -14 43 -25 51 -25 8 0 17 -7 21 -15 3 -8 12 -15 20 -15 9 0 20 -9 26 -20 6 -11 20 -20 30 -20 11 0 20 -4 20 -9 0 -5 20 -20 44 -32 25 -12 64 -41 87 -65 24 -24 47 -44 52 -44 11 0 249 -237 263 -261 5 -9 31 -41 57 -70 58 -65 146 -190 170 -241 10 -21 22 -38 27 -38 6 0 10 -7 10 -15 0 -8 5 -15 10 -15 6 0 10 -9 10 -19 0 -11 4 -22 9 -26 6 -3 20 -27 33 -53 29 -61 92 -127 145 -153 23 -11 73 -23 111 -26 62 -5 73 -3 115 21 49 29 83 69 112 129 28 59 17 170 -24 247 -17 33 -31 67 -31 75 0 8 -6 15 -13 15 -7 0 -19 21 -26 46 -8 25 -22 51 -32 57 -11 7 -19 19 -19 29 0 9 -16 33 -35 54 -19 20 -35 43 -35 51 0 7 -7 16 -15 19 -8 4 -15 10 -15 16 0 5 -11 21 -25 36 -14 15 -25 32 -25 37 0 6 -16 26 -35 45 -19 19 -35 39 -35 45 0 7 -13 24 -30 38 -16 15 -30 33 -30 41 0 8 -13 19 -30 25 -16 5 -30 16 -30 24 0 8 -9 17 -20 20 -11 3 -23 13 -27 24 -7 20 -81 93 -95 93 -4 0 -8 7 -8 15 0 8 -4 15 -9 15 -5 0 -24 16 -42 35 -19 19 -39 35 -46 35 -7 0 -30 18 -50 40 -21 22 -43 40 -50 40 -7 0 -17 9 -23 20 -6 11 -19 20 -29 20 -11 0 -21 7 -25 15 -3 8 -12 15 -19 15 -8 0 -22 9 -32 20 -11 12 -35 28 -54 37 -20 9 -50 27 -67 40 -17 13 -34 23 -39 23 -4 0 -27 15 -50 34 -23 19 -58 38 -78 41 -21 4 -42 15 -47 25 -5 10 -26 21 -47 25 -20 4 -49 15 -64 26 -15 11 -42 22 -61 26 -18 3 -44 14 -58 23 -14 10 -43 20 -65 24 -21 4 -51 16 -65 26 -14 9 -52 21 -85 25 -33 4 -72 16 -86 26 -16 11 -44 19 -67 19 -23 0 -43 4 -46 9 -3 4 -38 11 -78 15 -40 4 -77 11 -82 16 -6 6 -35 10 -66 10 -32 1 -63 7 -74 15 -17 13 -80 15 -400 14 -210 -1 -389 -3 -398 -6z"/>
 <path d="M3318 5973 c-16 -2 -28 -9 -28 -14 0 -5 -13 -9 -30 -9 -16 0 -30 -4 -30 -10 0 -5 -20 -10 -45 -10 -31 0 -47 -5 -51 -15 -4 -9 -19 -15 -35 -15 -16 0 -29 -4 -29 -10 0 -5 -11 -10 -24 -10 -13 0 -26 -7 -30 -15 -3 -8 -15 -15 -26 -15 -11 0 -20 -4 -20 -10 0 -5 -7 -10 -15 -10 -8 0 -15 -4 -15 -10 0 -5 -18 -13 -40 -16 -22 -4 -40 -10 -40 -15 0 -5 -9 -9 -20 -9 -11 0 -20 -4 -20 -10 0 -5 -10 -12 -23 -15 -13 -4 -31 -17 -41 -31 -11 -13 -27 -24 -37 -24 -11 0 -19 -4 -19 -10 0 -5 -5 -10 -11 -10 -7 0 -22 -11 -35 -25 -13 -14 -29 -25 -36 -25 -8 0 -20 -9 -28 -20 -8 -11 -20 -20 -27 -20 -7 0 -13 -7 -13 -15 0 -8 -7 -15 -15 -15 -8 0 -15 -4 -15 -9 0 -5 -9 -12 -19 -16 -11 -3 -23 -15 -26 -25 -3 -10 -16 -22 -27 -26 -17 -5 -248 -229 -622 -603 -4 -5 -64 -65 -133 -134 -69 -69 -129 -129 -134 -133 -335 -335 -548 -556 -553 -572 -4 -12 -12 -22 -17 -22 -5 0 -9 -11 -9 -25 0 -14 -4 -25 -10 -25 -6 0 -10 -29 -10 -67 0 -110 54 -191 150 -226 48 -18 165 -23 174 -8 3 4 20 11 38 15 24 5 80 54 235 209 111 111 203 208 203 215 0 6 5 12 12 12 6 0 248 235 536 523 598 597 547 547 561 547 6 0 11 3 11 8 0 4 22 22 49 41 28 18 52 39 55 46 2 7 18 16 34 20 17 3 38 15 48 26 9 10 34 24 56 29 22 6 38 17 38 25 0 8 7 15 15 15 8 0 23 4 33 10 9 5 35 16 57 25 22 9 52 23 67 31 14 8 39 14 55 15 33 0 105 28 131 50 10 8 26 18 35 22 9 3 17 12 17 19 0 6 10 22 22 36 19 19 24 37 27 104 2 45 -2 98 -8 118 -11 39 -83 120 -106 120 -7 0 -26 7 -41 15 -27 14 -85 17 -146 8z"/>
 <path d="M4413 5973 c-13 -2 -23 -9 -23 -14 0 -5 -7 -9 -15 -9 -8 0 -15 -4 -15 -10 0 -5 -9 -10 -20 -10 -11 0 -20 -5 -20 -11 0 -6 -6 -17 -12 -24 -32 -35 -38 -45 -38 -62 0 -10 -7 -27 -15 -37 -8 -11 -15 -38 -15 -61 0 -76 60 -205 95 -205 8 0 15 -3 15 -7 0 -13 60 -43 85 -43 13 0 38 -8 57 -17 61 -31 68 -33 87 -33 10 0 24 -7 31 -15 7 -8 20 -15 30 -15 10 0 23 -6 29 -13 6 -8 29 -19 50 -26 22 -6 43 -16 46 -21 4 -6 26 -19 49 -30 24 -11 46 -26 50 -35 3 -8 12 -15 21 -15 8 0 15 -4 15 -10 0 -5 6 -10 14 -10 8 0 16 -7 20 -15 3 -8 12 -15 20 -15 16 0 27 -9 169 -143 53 -51 97 -97 97 -103 0 -5 8 -17 18 -26 37 -37 51 -54 63 -83 8 -16 20 -35 27 -40 14 -11 38 -50 48 -77 3 -10 10 -18 15 -18 5 0 9 -7 9 -16 0 -8 13 -34 29 -57 15 -23 34 -60 41 -82 7 -22 18 -47 25 -55 6 -8 17 -41 24 -72 7 -32 19 -70 26 -85 8 -16 21 -82 30 -148 8 -66 20 -121 25 -123 14 -5 13 -359 -1 -364 -6 -2 -18 -62 -26 -133 -9 -72 -19 -132 -22 -135 -13 -10 -30 -59 -36 -104 -4 -25 -11 -46 -16 -46 -5 0 -9 -9 -9 -20 0 -11 -4 -20 -10 -20 -5 0 -10 -9 -10 -19 0 -21 -30 -84 -42 -89 -5 -2 -8 -12 -8 -23 0 -10 -4 -19 -9 -19 -5 0 -12 -11 -15 -25 -4 -14 -11 -25 -16 -25 -6 0 -10 -7 -10 -15 0 -8 -4 -15 -9 -15 -5 0 -12 -15 -15 -33 -3 -18 -17 -41 -31 -51 -14 -10 -25 -27 -25 -37 0 -10 -9 -20 -19 -24 -11 -3 -22 -14 -25 -23 -5 -15 -19 -34 -66 -89 -5 -7 -10 -16 -10 -20 0 -5 -10 -15 -21 -23 -12 -8 -27 -21 -33 -28 -47 -53 -108 -112 -116 -112 -5 0 -10 -5 -10 -11 0 -8 -70 -81 -142 -146 -7 -7 -19 -18 -25 -25 -16 -17 -153 -154 -306 -306 -9 -9 -84 -86 -167 -169 -82 -84 -154 -153 -160 -153 -5 0 -10 -5 -10 -10 0 -6 -30 -40 -67 -75 -85 -82 -69 -65 -167 -168 -46 -48 -89 -87 -95 -87 -6 0 -11 -4 -11 -9 0 -5 -27 -36 -60 -69 -41 -41 -60 -68 -60 -85 0 -14 -7 -27 -15 -31 -20 -7 -21 -128 -2 -148 8 -7 17 -27 21 -43 9 -37 63 -95 88 -95 10 0 18 -6 18 -14 0 -9 19 -16 61 -20 73 -9 169 2 169 18 0 6 15 20 33 29 35 19 1412 1390 1430 1423 5 11 30 38 53 61 24 24 44 47 44 53 0 6 11 20 25 32 14 12 25 27 25 34 0 6 7 17 15 24 9 7 23 28 31 46 9 19 20 34 25 34 5 0 9 7 9 15 0 8 4 15 10 15 9 0 50 80 50 99 0 5 3 11 8 13 11 5 42 64 42 81 0 9 3 17 8 19 11 5 42 64 42 82 0 9 7 19 15 22 8 4 15 16 15 28 0 11 7 30 15 40 8 11 15 30 15 42 0 13 5 26 10 29 6 3 10 14 10 23 0 9 6 29 14 43 7 14 17 48 20 74 7 43 12 60 37 120 4 11 10 40 12 65 3 25 9 83 16 130 28 218 34 318 23 377 -6 32 -14 107 -16 166 -3 59 -10 117 -16 127 -5 10 -10 38 -10 62 0 24 -4 48 -9 53 -9 11 -36 115 -46 178 -3 20 -10 37 -15 37 -6 0 -10 11 -10 25 0 14 -4 25 -10 25 -5 0 -10 10 -10 23 0 12 -7 35 -15 51 -8 15 -15 35 -15 42 0 8 -6 14 -14 14 -8 0 -17 15 -21 37 -3 20 -17 52 -31 72 -13 20 -24 42 -24 50 0 8 -11 29 -25 47 -14 18 -25 37 -25 42 0 5 -9 17 -20 27 -11 10 -25 33 -32 51 -7 19 -15 34 -19 34 -4 0 -24 24 -45 53 -20 28 -41 54 -46 55 -4 2 -8 8 -8 13 0 18 -310 316 -343 329 -7 3 -22 13 -32 23 -45 41 -84 67 -99 67 -9 0 -16 6 -16 14 0 13 -56 46 -79 46 -6 0 -15 8 -20 19 -6 10 -26 21 -46 24 -19 3 -48 15 -64 26 -16 12 -36 21 -44 21 -8 0 -17 7 -21 15 -3 8 -17 15 -31 15 -14 0 -33 4 -43 9 -9 5 -35 17 -57 26 -22 10 -48 22 -57 26 -10 5 -26 9 -37 9 -10 0 -32 7 -47 15 -28 14 -127 18 -181 8z"/>
 <path d="M3818 5108 c-2 -6 -37 -13 -86 -16 -45 -2 -82 -8 -82 -13 0 -5 -11 -9 -25 -9 -14 0 -25 -4 -25 -9 0 -5 -26 -13 -57 -17 -35 -4 -64 -14 -73 -24 -8 -9 -35 -20 -59 -24 -24 -4 -51 -15 -60 -25 -9 -10 -27 -22 -40 -26 -13 -4 -35 -18 -48 -31 -13 -13 -29 -24 -36 -24 -7 0 -19 -9 -27 -20 -8 -11 -18 -20 -23 -20 -5 0 -26 -17 -47 -37 -22 -21 -45 -43 -52 -50 -7 -7 -18 -18 -25 -25 -7 -7 -18 -18 -25 -25 -7 -7 -18 -18 -25 -25 -7 -7 -18 -18 -25 -25 -7 -7 -19 -18 -25 -25 -7 -7 -18 -18 -24 -24 -15 -15 -108 -108 -123 -123 -6 -6 -17 -17 -24 -24 -7 -6 -18 -18 -25 -25 -7 -7 -18 -18 -25 -25 -7 -7 -18 -18 -25 -25 -16 -17 -102 -103 -119 -119 -7 -7 -18 -18 -25 -25 -7 -7 -18 -18 -25 -25 -7 -7 -18 -18 -25 -25 -7 -7 -18 -18 -25 -25 -7 -7 -19 -18 -25 -25 -7 -7 -17 -17 -22 -23 -6 -5 -33 -32 -60 -60 -28 -27 -56 -55 -63 -62 -7 -7 -18 -18 -25 -25 -7 -7 -18 -18 -25 -25 -7 -7 -18 -18 -25 -25 -7 -7 -18 -18 -25 -25 -7 -7 -19 -18 -25 -25 -7 -7 -18 -18 -24 -24 -6 -7 -33 -34 -60 -60 -26 -27 -54 -54 -61 -61 -7 -7 -18 -18 -25 -25 -7 -7 -18 -18 -25 -25 -7 -7 -19 -18 -25 -25 -7 -7 -18 -18 -24 -24 -15 -15 -108 -108 -123 -123 -6 -6 -17 -17 -24 -24 -7 -6 -18 -18 -25 -25 -7 -7 -18 -18 -25 -25 -7 -7 -18 -18 -25 -25 -7 -7 -18 -18 -25 -25 -7 -7 -18 -18 -25 -25 -16 -17 -102 -103 -119 -119 -7 -7 -18 -18 -25 -25 -7 -7 -18 -18 -25 -25 -7 -7 -18 -18 -25 -25 -7 -7 -18 -18 -25 -25 -7 -7 -19 -18 -25 -25 -7 -7 -18 -19 -25 -26 -58 -58 -68 -71 -68 -86 0 -9 -4 -16 -10 -16 -5 0 -10 -7 -10 -15 0 -8 -4 -15 -10 -15 -6 0 -10 -30 -10 -69 0 -80 24 -135 81 -193 53 -51 147 -76 221 -58 23 6 54 14 68 17 16 4 357 338 919 899 492 492 900 894 907 894 7 0 18 8 23 19 6 10 23 22 37 25 15 4 38 16 52 26 13 11 40 22 61 26 20 4 58 15 84 25 26 11 65 19 87 19 21 0 42 5 45 10 8 12 82 13 89 1 3 -4 33 -11 66 -14 33 -3 66 -9 73 -15 7 -5 30 -12 52 -16 53 -9 98 -27 108 -43 4 -7 17 -13 27 -13 11 0 37 -16 59 -35 21 -19 43 -35 48 -35 10 0 121 -114 138 -141 6 -9 22 -35 38 -57 15 -23 27 -47 27 -54 0 -6 6 -19 13 -27 7 -9 19 -36 26 -61 7 -25 17 -59 22 -76 5 -17 9 -40 9 -52 0 -11 5 -24 10 -27 12 -8 13 -165 1 -165 -8 0 -12 -13 -30 -110 -10 -54 -32 -110 -43 -110 -4 0 -8 -11 -8 -25 0 -14 -4 -25 -10 -25 -5 0 -12 -11 -16 -25 -3 -14 -9 -25 -14 -25 -4 0 -15 -16 -26 -35 -10 -19 -22 -35 -26 -35 -5 0 -8 -5 -8 -10 0 -11 -15 -31 -38 -53 -7 -7 -18 -18 -25 -25 -13 -14 -17 -18 -72 -69 -19 -18 -35 -41 -35 -52 0 -11 -6 -21 -12 -24 -21 -6 -16 -181 5 -202 10 -9 17 -22 17 -29 0 -20 43 -55 107 -87 66 -33 140 -38 187 -14 15 8 32 15 37 15 31 0 226 204 274 288 11 17 23 32 27 32 4 0 8 5 8 11 0 6 11 25 25 43 14 18 25 37 25 42 0 5 12 32 25 59 14 28 25 60 25 71 0 12 7 27 15 34 8 7 15 22 15 34 0 12 4 26 8 32 8 8 17 48 56 234 20 94 21 218 1 293 -8 32 -15 69 -15 83 0 46 -35 165 -66 226 -8 14 -14 36 -14 48 0 11 -11 38 -25 58 -14 20 -25 44 -25 54 0 9 -9 22 -20 28 -11 6 -20 17 -20 24 0 7 -11 23 -25 36 -14 13 -25 29 -25 35 0 7 -9 20 -20 30 -11 10 -20 22 -20 26 0 12 -158 169 -171 169 -6 0 -20 11 -30 24 -11 13 -39 34 -63 46 -24 11 -47 27 -50 35 -3 8 -14 15 -25 15 -11 0 -32 11 -48 24 -16 14 -43 28 -59 32 -16 4 -42 15 -59 24 -16 9 -49 20 -73 24 -24 3 -51 10 -60 15 -46 23 -73 30 -147 35 -43 3 -84 11 -89 16 -14 14 -213 13 -218 -2z"/>
 <path d="M6710 4470 c0 -5 -16 -10 -35 -10 -24 0 -35 -5 -35 -15 0 -8 -8 -15 -18 -15 -11 0 -27 -14 -38 -35 -10 -19 -22 -35 -27 -35 -5 0 -6 -68 -2 -152 14 -329 4 -588 -30 -733 -9 -38 -20 -92 -24 -120 -11 -69 -34 -145 -43 -145 -4 0 -8 -13 -8 -30 0 -16 -4 -30 -9 -30 -5 0 -13 -25 -16 -55 -4 -30 -11 -55 -15 -55 -4 0 -15 -25 -25 -55 -11 -30 -22 -55 -26 -55 -4 0 -15 -22 -25 -50 -10 -27 -22 -50 -26 -50 -4 0 -8 -8 -8 -18 0 -10 -7 -27 -15 -38 -8 -10 -15 -27 -15 -36 0 -10 -5 -18 -11 -18 -5 0 -17 -16 -25 -35 -13 -33 -30 -58 -61 -90 -7 -8 -13 -21 -13 -30 0 -8 -7 -18 -15 -21 -8 -4 -15 -12 -15 -19 0 -8 -16 -30 -35 -50 -19 -21 -37 -46 -40 -56 -4 -10 -11 -19 -16 -19 -5 0 -9 -5 -9 -11 0 -6 -18 -28 -40 -50 -22 -22 -40 -46 -40 -54 0 -8 -7 -15 -15 -15 -8 0 -15 -4 -15 -9 0 -6 -166 -176 -369 -379 -203 -204 -372 -381 -376 -393 -4 -13 -12 -26 -16 -30 -14 -9 -15 -157 -1 -171 7 -7 12 -19 12 -28 0 -9 21 -39 47 -66 49 -51 100 -73 171 -74 51 0 124 20 157 45 40 30 789 782 794 798 2 6 26 34 53 61 26 28 48 56 48 62 0 7 10 20 21 28 20 13 36 36 55 76 4 8 16 21 26 28 10 7 18 21 18 31 0 11 6 21 14 24 8 3 24 25 35 49 12 24 35 63 51 88 17 25 33 53 36 62 3 9 12 19 20 22 8 3 14 14 14 24 0 22 27 79 41 87 5 4 9 17 9 30 0 13 3 25 8 27 12 5 42 68 42 88 0 9 7 23 15 30 8 7 15 21 15 31 0 10 5 21 10 24 6 3 10 16 10 28 0 12 7 35 15 51 8 15 15 37 15 47 0 10 5 21 10 24 6 3 10 21 10 40 0 19 4 36 9 39 5 4 14 28 20 54 6 26 20 80 31 121 11 41 20 94 20 118 0 24 6 54 14 66 30 47 48 488 31 766 -7 108 -12 132 -37 183 -44 89 -81 108 -208 108 -60 0 -100 -4 -100 -10z"/>
 <path d="M3750 4050 c0 -5 -9 -10 -19 -10 -10 0 -21 -7 -25 -15 -3 -8 -12 -15 -21 -15 -8 0 -15 -4 -15 -10 0 -5 -6 -10 -12 -10 -7 -1 -22 -12 -33 -26 -11 -14 -26 -31 -33 -37 -7 -7 -18 -18 -25 -25 -7 -7 -18 -18 -25 -25 -7 -7 -18 -18 -25 -25 -14 -15 -150 -152 -169 -169 -17 -16 -35 -34 -51 -51 -10 -11 -81 -82 -117 -117 -5 -5 -28 -28 -49 -50 -22 -22 -46 -45 -53 -52 -7 -7 -19 -18 -25 -25 -7 -7 -17 -17 -22 -23 -6 -5 -55 -55 -110 -110 -55 -55 -106 -105 -113 -112 -7 -7 -19 -18 -25 -25 -7 -7 -18 -18 -24 -24 -6 -7 -44 -45 -85 -85 -40 -41 -79 -79 -86 -86 -7 -7 -18 -18 -25 -25 -7 -7 -18 -18 -25 -25 -7 -7 -19 -18 -25 -25 -7 -7 -18 -18 -24 -24 -6 -7 -45 -46 -86 -88 -41 -42 -78 -76 -83 -76 -5 0 -11 -9 -15 -19 -3 -11 -15 -23 -25 -26 -10 -3 -22 -15 -25 -26 -4 -10 -13 -19 -21 -19 -8 0 -14 -4 -14 -9 0 -7 -109 -120 -172 -178 -7 -7 -19 -18 -25 -25 -7 -7 -17 -17 -22 -23 -94 -94 -161 -166 -161 -175 0 -5 -4 -10 -9 -10 -5 0 -15 -21 -21 -47 -6 -27 -14 -58 -17 -70 -3 -13 3 -52 12 -88 15 -53 27 -75 67 -115 32 -33 60 -51 83 -56 19 -3 38 -10 41 -15 7 -12 111 -12 118 0 3 5 21 12 40 15 22 4 55 25 88 55 120 110 1810 1807 1823 1830 40 73 47 96 43 153 -5 62 -52 173 -78 182 -15 5 -27 13 -82 49 -20 13 -47 17 -112 17 -51 0 -86 -4 -86 -10z"/>
 <path d="M3712 2555 c-7 -8 -22 -15 -33 -15 -26 0 -926 -899 -935 -935 -3 -14 -11 -25 -16 -25 -15 0 -6 -212 10 -218 6 -2 12 -10 12 -18 0 -26 74 -90 124 -107 54 -19 181 -23 191 -7 3 6 15 10 26 10 15 0 456 429 801 778 145 148 161 171 166 249 6 82 -5 153 -23 153 -8 0 -19 16 -26 35 -7 19 -20 37 -30 40 -9 3 -24 14 -34 25 -10 11 -28 20 -40 20 -13 0 -28 7 -35 15 -17 21 -140 20 -158 0z"/>
 </g>

</svg>