<?xml version="1.0" standalone="no"?><svg xmlns="http://www.w3.org/2000/svg" viewBox="0 0 1440 320"><path fill="#343a40" fill-opacity="1" d="M0,160L40,165.3C80,171,160,181,240,160C320,139,400,85,480,64C560,43,640,53,720,80C800,107,880,149,960,181.3C1040,213,1120,235,1200,218.7C1280,203,1360,149,1400,122.7L1440,96L1440,320L1400,320C1360,320,1280,320,1200,320C1120,320,1040,320,960,320C880,320,800,320,720,320C640,320,560,320,480,320C400,320,320,320,240,320C160,320,80,320,40,320L0,320Z"></path></svg>