<?xml version="1.0" standalone="no"?><svg xmlns="http://www.w3.org/2000/svg" viewBox="0 0 1440 320"><path fill="#343a40" fill-opacity="1" d="M0,224L30,234.7C60,245,120,267,180,261.3C240,256,300,224,360,224C420,224,480,256,540,234.7C600,213,660,139,720,133.3C780,128,840,192,900,218.7C960,245,1020,235,1080,213.3C1140,192,1200,160,1260,170.7C1320,181,1380,235,1410,261.3L1440,288L1440,320L1410,320C1380,320,1320,320,1260,320C1200,320,1140,320,1080,320C1020,320,960,320,900,320C840,320,780,320,720,320C660,320,600,320,540,320C480,320,420,320,360,320C300,320,240,320,180,320C120,320,60,320,30,320L0,320Z"></path></svg>