<?xml version="1.0" standalone="no"?><svg xmlns="http://www.w3.org/2000/svg" viewBox="0 0 1440 320"><path fill="#343a40" fill-opacity="1" d="M0,192L40,197.3C80,203,160,213,240,208C320,203,400,181,480,197.3C560,213,640,267,720,256C800,245,880,171,960,170.7C1040,171,1120,245,1200,250.7C1280,256,1360,192,1400,160L1440,128L1440,320L1400,320C1360,320,1280,320,1200,320C1120,320,1040,320,960,320C880,320,800,320,720,320C640,320,560,320,480,320C400,320,320,320,240,320C160,320,80,320,40,320L0,320Z"></path></svg>